<svg width="48" height="48" viewBox="0 0 48 48" fill="none" xmlns="http://www.w3.org/2000/svg">
<mask id="path-1-inside-1_79_6530" fill="white">
<path d="M0 10C0 4.47715 4.47715 0 10 0H38C43.5229 0 48 4.47715 48 10V38C48 43.5229 43.5228 48 38 48H10C4.47715 48 0 43.5228 0 38V10Z"/>
</mask>
<path d="M0 10C0 4.47715 4.47715 0 10 0H38C43.5229 0 48 4.47715 48 10V38C48 43.5229 43.5228 48 38 48H10C4.47715 48 0 43.5228 0 38V10Z" fill="white"/>
<path d="M10 0V1.5H38V0V-1.5H10V0ZM48 10H46.5V38H48H49.5V10H48ZM38 48V46.5H10V48V49.5H38V48ZM0 38H1.5V10H0H-1.5V38H0ZM10 48V46.5C5.30558 46.5 1.5 42.6944 1.5 38H0H-1.5C-1.5 44.3513 3.64872 49.5 10 49.5V48ZM48 38H46.5C46.5 42.6944 42.6944 46.5 38 46.5V48V49.5C44.3513 49.5 49.5 44.3513 49.5 38H48ZM38 0V1.5C42.6944 1.5 46.5 5.30558 46.5 10H48H49.5C49.5 3.64873 44.3513 -1.5 38 -1.5V0ZM10 0V-1.5C3.64873 -1.5 -1.5 3.64872 -1.5 10H0H1.5C1.5 5.30558 5.30558 1.5 10 1.5V0Z" fill="#1569AD" mask="url(#path-1-inside-1_79_6530)"/>
<path d="M24 18.1665V29.8332" stroke="#1773BE" stroke-width="1.75" stroke-linecap="round" stroke-linejoin="round"/>
<path d="M18.166 24H29.8327" stroke="#1773BE" stroke-width="1.75" stroke-linecap="round" stroke-linejoin="round"/>
</svg>
