<svg width="20" height="22" viewBox="0 0 20 22" fill="none" xmlns="http://www.w3.org/2000/svg">
<path fill-rule="evenodd" clip-rule="evenodd" d="M3.11872 2.61872C2.64698 3.09046 2.375 3.99375 2.375 6V17C2.375 17.4832 1.98325 17.875 1.5 17.875C1.01675 17.875 0.625 17.4832 0.625 17V6C0.625 4.00625 0.853025 2.40954 1.88128 1.38128C2.90954 0.353025 4.50625 0.125 6.5 0.125H13.5C15.4937 0.125 17.0905 0.353025 18.1187 1.38128C19.147 2.40954 19.375 4.00625 19.375 6V16.0112C19.375 16.1442 19.375 16.3109 19.3628 16.4823C19.3283 16.9644 18.9097 17.3272 18.4277 17.2928C17.9456 17.2583 17.5828 16.8397 17.6172 16.3577C17.6246 16.254 17.625 16.1452 17.625 16V6C17.625 3.99375 17.353 3.09046 16.8813 2.61872C16.4095 2.14698 15.5063 1.875 13.5 1.875H6.5C4.49375 1.875 3.59046 2.14698 3.11872 2.61872Z" fill="#000"/>
<path fill-rule="evenodd" clip-rule="evenodd" d="M4.35 14.875C3.26325 14.875 2.375 15.7632 2.375 16.85V17.5C2.375 18.9468 3.55325 20.125 5 20.125H15C16.4468 20.125 17.625 18.9468 17.625 17.5V14.875H4.35ZM0.625 16.85C0.625 14.7968 2.29675 13.125 4.35 13.125H18.5C18.9832 13.125 19.375 13.5168 19.375 14V17.5C19.375 19.9132 17.4132 21.875 15 21.875H5C2.58675 21.875 0.625 19.9132 0.625 17.5V16.85Z" fill="#000"/>
<path fill-rule="evenodd" clip-rule="evenodd" d="M5.125 6C5.125 5.51675 5.51675 5.125 6 5.125H14C14.4832 5.125 14.875 5.51675 14.875 6C14.875 6.48325 14.4832 6.875 14 6.875H6C5.51675 6.875 5.125 6.48325 5.125 6Z" fill="#000"/>
<path fill-rule="evenodd" clip-rule="evenodd" d="M5.125 9.5C5.125 9.01675 5.51675 8.625 6 8.625H11C11.4832 8.625 11.875 9.01675 11.875 9.5C11.875 9.98325 11.4832 10.375 11 10.375H6C5.51675 10.375 5.125 9.98325 5.125 9.5Z" fill="#000"/>
</svg>
