<svg width="48" height="48" viewBox="0 0 48 48" fill="none" xmlns="http://www.w3.org/2000/svg">
<mask id="path-1-inside-1_68_5744" fill="white">
<path d="M0 10C0 4.47715 4.47715 0 10 0H38C43.5229 0 48 4.47715 48 10V38C48 43.5229 43.5228 48 38 48H10C4.47715 48 0 43.5228 0 38V10Z"/>
</mask>
<path d="M0 10C0 4.47715 4.47715 0 10 0H38C43.5229 0 48 4.47715 48 10V38C48 43.5229 43.5228 48 38 48H10C4.47715 48 0 43.5228 0 38V10Z" fill="white"/>
<path d="M10 0V1.5H38V0V-1.5H10V0ZM48 10H46.5V38H48H49.5V10H48ZM38 48V46.5H10V48V49.5H38V48ZM0 38H1.5V10H0H-1.5V38H0ZM10 48V46.5C5.30558 46.5 1.5 42.6944 1.5 38H0H-1.5C-1.5 44.3513 3.64872 49.5 10 49.5V48ZM48 38H46.5C46.5 42.6944 42.6944 46.5 38 46.5V48V49.5C44.3513 49.5 49.5 44.3513 49.5 38H48ZM38 0V1.5C42.6944 1.5 46.5 5.30558 46.5 10H48H49.5C49.5 3.64873 44.3513 -1.5 38 -1.5V0ZM10 0V-1.5C3.64873 -1.5 -1.5 3.64872 -1.5 10H0H1.5C1.5 5.30558 5.30558 1.5 10 1.5V0Z" fill="#1569AD" mask="url(#path-1-inside-1_68_5744)"/>
<path fill-rule="evenodd" clip-rule="evenodd" d="M21.5007 22.4375C21.9034 22.4375 22.2298 22.764 22.2298 23.1667V26.4063L22.6517 25.9844C22.9365 25.6996 23.3982 25.6996 23.6829 25.9844C23.9677 26.2692 23.9677 26.7308 23.6829 27.0156L22.0162 28.6823C21.8077 28.8908 21.4941 28.9532 21.2216 28.8403C20.9491 28.7275 20.7715 28.4616 20.7715 28.1667V23.1667C20.7715 22.764 21.0979 22.4375 21.5007 22.4375Z" fill="#1773BE"/>
<path fill-rule="evenodd" clip-rule="evenodd" d="M19.3171 25.9846C19.6018 25.6998 20.0635 25.6998 20.3483 25.9846L22.0149 27.6512C22.2997 27.936 22.2997 28.3977 22.0149 28.6824C21.7302 28.9672 21.2685 28.9672 20.9838 28.6824L19.3171 27.0158C19.0323 26.731 19.0323 26.2693 19.3171 25.9846Z" fill="#1773BE"/>
<path fill-rule="evenodd" clip-rule="evenodd" d="M17.5364 17.5364C16.8026 18.2703 16.3958 19.4886 16.3958 21.5V26.5C16.3958 28.5114 16.8026 29.7297 17.5364 30.4636C18.2703 31.1974 19.4886 31.6042 21.5 31.6042H26.5C28.5114 31.6042 29.7297 31.1974 30.4636 30.4636C31.1974 29.7297 31.6042 28.5114 31.6042 26.5V22.3333C31.6042 21.9306 31.9306 21.6042 32.3333 21.6042C32.736 21.6042 33.0625 21.9306 33.0625 22.3333V26.5C33.0625 28.6553 32.6359 30.3536 31.4948 31.4948C30.3536 32.6359 28.6553 33.0625 26.5 33.0625H21.5C19.3447 33.0625 17.6464 32.6359 16.5052 31.4948C15.3641 30.3536 14.9375 28.6553 14.9375 26.5V21.5C14.9375 19.3447 15.3641 17.6464 16.5052 16.5052C17.6464 15.3641 19.3447 14.9375 21.5 14.9375H25.6667C26.0694 14.9375 26.3958 15.264 26.3958 15.6667C26.3958 16.0694 26.0694 16.3958 25.6667 16.3958H21.5C19.4886 16.3958 18.2703 16.8026 17.5364 17.5364Z" fill="#1773BE"/>
<path fill-rule="evenodd" clip-rule="evenodd" d="M25.3876 14.993C25.6601 14.8802 25.9737 14.9425 26.1823 15.1511L32.8489 21.8178C33.0575 22.0263 33.1199 22.3399 33.007 22.6124C32.8941 22.8849 32.6283 23.0625 32.3333 23.0625H29C27.7096 23.0625 26.6173 22.8569 25.8802 22.1198C25.1432 21.3827 24.9375 20.2904 24.9375 19V15.6667C24.9375 15.3718 25.1152 15.1059 25.3876 14.993ZM26.3958 17.4271V19C26.3958 20.2096 26.6068 20.784 26.9114 21.0886C27.216 21.3932 27.7904 21.6042 29 21.6042H30.573L26.3958 17.4271Z" fill="#1773BE"/>
</svg>
