<svg width="18" height="18" viewBox="0 0 18 18" fill="none" xmlns="http://www.w3.org/2000/svg">
  <path d="M5.7231 2.67749C5.85765 2.60411 6.00062 2.717 6.00062 2.87025V13.0371C6.00062 13.2046 5.8863 13.3461 5.73825 13.4244C5.73317 13.427 5.72812 13.4298 5.7231 13.4325L3.96046 14.4375C2.73036 15.1425 1.71777 14.5575 1.71777 13.1325V5.83499C1.71777 5.36249 2.0553 4.77749 2.47534 4.53749L5.7231 2.67749Z"
    fill="currentColor" stroke="black" stroke-width="1"/>
  <path d="M11.0427 4.57674C11.1705 4.64001 11.2513 4.77024 11.2513 4.91279V14.7776C11.2513 15.054 10.9625 15.2354 10.7135 15.1155L7.52573 13.5798C7.39597 13.5173 7.31348 13.386 7.31348 13.242V3.33422C7.31348 3.05608 7.60567 2.87473 7.85494 2.99817L11.0427 4.57674Z"
    fill="currentColor" stroke="black" stroke-width="1"/>
  <path d="M16.5013 4.86755V12.165C16.5013 12.6375 16.1638 13.2225 15.7437 13.4625L13.125 14.9633C12.875 15.1065 12.5635 14.9261 12.5635 14.6379V4.74779C12.5635 4.61315 12.6357 4.48885 12.7526 4.42211L14.2586 3.56255C15.4887 2.85755 16.5013 3.44255 16.5013 4.86755Z"
    fill="currentColor" stroke="black" stroke-width="1"/>
</svg>
