<svg width="48" height="48" viewBox="0 0 48 48" fill="none" xmlns="http://www.w3.org/2000/svg">
<mask id="path-1-inside-1_79_6668" fill="white">
<path d="M0 10C0 4.47715 4.47715 0 10 0H38C43.5229 0 48 4.47715 48 10V38C48 43.5229 43.5228 48 38 48H10C4.47715 48 0 43.5228 0 38V10Z"/>
</mask>
<path d="M0 10C0 4.47715 4.47715 0 10 0H38C43.5229 0 48 4.47715 48 10V38C48 43.5229 43.5228 48 38 48H10C4.47715 48 0 43.5228 0 38V10Z" fill="white"/>
<path d="M10 0V1.5H38V0V-1.5H10V0ZM48 10H46.5V38H48H49.5V10H48ZM38 48V46.5H10V48V49.5H38V48ZM0 38H1.5V10H0H-1.5V38H0ZM10 48V46.5C5.30558 46.5 1.5 42.6944 1.5 38H0H-1.5C-1.5 44.3513 3.64872 49.5 10 49.5V48ZM48 38H46.5C46.5 42.6944 42.6944 46.5 38 46.5V48V49.5C44.3513 49.5 49.5 44.3513 49.5 38H48ZM38 0V1.5C42.6944 1.5 46.5 5.30558 46.5 10H48H49.5C49.5 3.64873 44.3513 -1.5 38 -1.5V0ZM10 0V-1.5C3.64873 -1.5 -1.5 3.64872 -1.5 10H0H1.5C1.5 5.30558 5.30558 1.5 10 1.5V0Z" fill="#CF1322" mask="url(#path-1-inside-1_79_6668)"/>
<path fill-rule="evenodd" clip-rule="evenodd" d="M18.1285 18.091C19.8024 17.9219 21.4765 17.8374 23.1507 17.8374C25.9587 17.8374 28.7744 17.9803 31.5726 18.2576C31.9734 18.2973 32.266 18.6544 32.2263 19.0551C32.1866 19.4559 31.8295 19.7486 31.4288 19.7088C28.677 19.4361 25.9094 19.2957 23.1507 19.2957C21.5253 19.2957 19.8998 19.3778 18.274 19.542L18.2718 19.5423L18.2718 19.5423L16.5718 19.7089C16.1711 19.7482 15.8143 19.4552 15.775 19.0544C15.7357 18.6536 16.0288 18.2968 16.4296 18.2575L18.1285 18.091Z" fill="#E63D46"/>
<path fill-rule="evenodd" clip-rule="evenodd" d="M21.9852 17.1711L21.8019 18.2624C21.7352 18.6596 21.3592 18.9275 20.962 18.8608C20.5649 18.7941 20.297 18.418 20.3637 18.0209L20.547 16.9292C20.5504 16.9093 20.5539 16.8882 20.5574 16.8667C20.614 16.5236 20.7024 15.9869 21.0619 15.5792C21.4866 15.0977 22.1269 14.9375 22.9078 14.9375H25.0911C25.8829 14.9375 26.5222 15.1112 26.9439 15.5971C27.3035 16.0115 27.3897 16.5493 27.4437 16.8868C27.4466 16.9047 27.4494 16.9221 27.4521 16.9389L27.6351 18.02C27.7023 18.4171 27.4349 18.7934 27.0378 18.8606C26.6407 18.9278 26.2644 18.6604 26.1972 18.2633L26.0131 17.1757C25.9422 16.7408 25.9005 16.6197 25.8425 16.5529C25.8262 16.5342 25.7062 16.3958 25.0911 16.3958H22.9078C22.2856 16.3958 22.1685 16.5292 22.156 16.5434C22.1559 16.5435 22.1561 16.5433 22.156 16.5434C22.1399 16.5617 22.1111 16.6035 22.0792 16.7097C22.0447 16.8245 22.0203 16.9626 21.9852 17.1711Z" fill="#E63D46"/>
<path fill-rule="evenodd" clip-rule="evenodd" d="M18.2447 20.8892C18.6466 20.8633 18.9934 21.168 19.0193 21.5699L19.5607 29.9576C19.5608 29.9583 19.5608 29.9589 19.5609 29.9596C19.5845 30.2966 19.6041 30.5557 19.6492 30.7798C19.6929 30.9969 19.7515 31.1284 19.82 31.2175C19.9306 31.3616 20.236 31.6044 21.325 31.6044H26.675C27.7641 31.6044 28.0694 31.3616 28.1801 31.2175C28.2485 31.1284 28.3071 30.9969 28.3508 30.7798C28.396 30.5557 28.4156 30.2966 28.4392 29.9597C28.4392 29.959 28.4393 29.9583 28.4393 29.9576L28.9807 21.5699C29.0066 21.168 29.3535 20.8633 29.7553 20.8892C30.1572 20.9152 30.462 21.262 30.436 21.6639L29.8941 30.0595L29.8928 30.0782C29.871 30.3897 29.8464 30.7403 29.7805 31.0678C29.7117 31.4093 29.589 31.7772 29.3366 32.1058C28.8056 32.7972 27.911 33.0627 26.675 33.0627H21.325C20.0891 33.0627 19.1944 32.7972 18.6634 32.1058C18.411 31.7772 18.2884 31.4093 18.2196 31.0677C18.1536 30.7403 18.1291 30.3897 18.1073 30.0782L18.1057 30.0555L17.564 21.6639C17.5381 21.262 17.8429 20.9152 18.2447 20.8892Z" fill="#E63D46"/>
<path fill-rule="evenodd" clip-rule="evenodd" d="M21.8789 27.7502C21.8789 27.3475 22.2054 27.021 22.6081 27.021H25.3831C25.7858 27.021 26.1122 27.3475 26.1122 27.7502C26.1122 28.1529 25.7858 28.4793 25.3831 28.4793H22.6081C22.2054 28.4793 21.8789 28.1529 21.8789 27.7502Z" fill="#E63D46"/>
<path fill-rule="evenodd" clip-rule="evenodd" d="M21.1875 24.4167C21.1875 24.014 21.514 23.6875 21.9167 23.6875H26.0833C26.486 23.6875 26.8125 24.014 26.8125 24.4167C26.8125 24.8194 26.486 25.1458 26.0833 25.1458H21.9167C21.514 25.1458 21.1875 24.8194 21.1875 24.4167Z" fill="#E63D46"/>
</svg>
