<svg width="18" height="18" viewBox="0 0 18 18" fill="none" xmlns="http://www.w3.org/2000/svg">
<g clip-path="url(#clip0_124_622)">
<path d="M9.18217 4.63765L6.41938 6.20561C5.79601 6.55939 5.48432 6.73629 5.40308 7.03952C5.32184 7.34276 5.50334 7.6518 5.86634 8.2698L6.31312 9.03052C6.6664 9.63202 6.84304 9.93277 7.13997 10.0123C7.43689 10.0918 7.74022 9.91972 8.3469 9.5754L11.1484 7.9854M5.29225 7.29193L2.5677 8.83822C1.92552 9.20265 1.60442 9.3849 1.52011 9.6942C1.43578 10.0036 1.62117 10.3192 1.99193 10.9504C2.36269 11.5817 2.54808 11.8973 2.86276 11.9802C3.17745 12.0631 3.49854 11.8809 4.14072 11.5164L6.86527 9.97012M16.0081 3.88866L15.2215 2.54954C14.8508 1.91828 14.6654 1.60265 14.3507 1.51976C14.036 1.43688 13.7149 1.61911 13.0728 1.98357L10.31 3.55154C9.68662 3.90532 9.37492 4.0822 9.2937 4.38544C9.21247 4.68868 9.39397 4.9977 9.75697 5.61574L10.597 7.04599C10.9503 7.64745 11.1269 7.9482 11.4238 8.02777C11.7208 8.10735 12.0241 7.93515 12.6307 7.5909L15.4323 6.00091C16.0744 5.63645 16.3956 5.45422 16.4799 5.14489C16.5642 4.83556 16.3788 4.51993 16.0081 3.88866Z" stroke="#27272A" stroke-width="1.3125" stroke-linejoin="round"/>
<path d="M12 16.5L9 9.375L6 16.5" stroke="#27272A" stroke-width="1.3125" stroke-linecap="round" stroke-linejoin="round"/>
</g>
<defs>
<clipPath id="clip0_124_622">
<rect width="18" height="18" fill="white"/>
</clipPath>
</defs>
</svg>
