<?xml version="1.0" encoding="UTF-8"?>
<svg width="24" height="24" viewBox="0 0 24 24" fill="none" xmlns="http://www.w3.org/2000/svg">
  <path
    d="M12 8.125C12.483 8.125 12.875 8.517 12.875 9V14C12.875 14.483 12.483 14.875 12 14.875C11.517 14.875 11.125 14.483 11.125 14V9C11.125 8.517 11.517 8.125 12 8.125Z"
    stroke="currentColor"
    stroke-width="1.5"
    stroke-linecap="round"
    stroke-linejoin="round"
  />
  <path
    d="M11.999 3.468C11.263 3.468 10.329 3.974 9.525 5.424L3.465 16.324C2.718 17.672 2.765 18.705 3.143 19.348C3.521 19.991 4.397 20.535 5.94 20.535H12C12.045 20.535 12.089 20.538 12.133 20.545H18.06C19.597 20.545 20.474 20.002 20.853 19.358C21.232 18.713 21.281 17.681 20.535 16.334L14.475 5.425C13.671 3.975 12.737 3.468 11.999 3.468ZM11.867 22.285H5.94C4.013 22.285 2.429 21.589 1.634 20.234C0.839 18.88 1.002 17.158 1.935 15.476L7.995 4.576C8.971 2.816 10.387 1.718 11.999 1.718C13.613 1.718 15.029 2.816 16.005 4.575L22.065 15.485C22.998 17.169 23.158 18.892 22.362 20.245C21.566 21.598 19.983 22.295 18.06 22.295H12C11.955 22.295 11.911 22.292 11.867 22.285Z"
    stroke="currentColor"
    stroke-width="1.5"
    stroke-linecap="round"
    stroke-linejoin="round"
  />
  <path
    d="M11.12 17C11.12 16.517 11.511 16.125 11.995 16.125H12.004C12.487 16.125 12.879 16.517 12.879 17C12.879 17.483 12.487 17.875 12.004 17.875H11.995C11.511 17.875 11.12 17.483 11.12 17Z"
    stroke="currentColor"
    stroke-width="1.5"
    stroke-linecap="round"
    stroke-linejoin="round"
  />
</svg>
