<svg width="24" height="24" viewBox="0 0 24 24" fill="none" xmlns="http://www.w3.org/2000/svg">
<path fill-rule="evenodd" clip-rule="evenodd" d="M12 8.125C12.4832 8.125 12.875 8.51675 12.875 9V14C12.875 14.4832 12.4832 14.875 12 14.875C11.5168 14.875 11.125 14.4832 11.125 14V9C11.125 8.51675 11.5168 8.125 12 8.125Z" fill="#27272A"/>
<path fill-rule="evenodd" clip-rule="evenodd" d="M11.9999 3.46753C11.2626 3.46753 10.3293 3.97415 9.52514 5.42436L3.46516 16.3243C2.71792 17.672 2.76544 18.7047 3.14327 19.3483C3.52062 19.9912 4.39714 20.535 5.93992 20.535H11.9999C12.045 20.535 12.0894 20.5384 12.1326 20.545H18.0599C19.5968 20.545 20.4744 20.0017 20.8532 19.3576C21.2322 18.7133 21.2813 17.6808 20.5347 16.3343L14.4751 5.42509C13.6709 3.97488 12.7372 3.46753 11.9999 3.46753ZM11.8672 22.285H5.93992C4.0127 22.285 2.42922 21.5889 1.63406 20.2342C0.839397 18.8804 1.00192 17.158 1.93467 15.4757L7.99469 4.5757C7.99461 4.57586 7.99478 4.57554 7.99469 4.5757C8.97052 2.81618 10.3874 1.71753 11.9999 1.71753C13.6125 1.71753 15.0291 2.81574 16.0049 4.5753C16.0048 4.57517 16.005 4.57543 16.0049 4.5753L22.0649 15.4853C22.9984 17.1688 23.1576 18.8917 22.3616 20.2449C21.5655 21.5983 19.983 22.295 18.0599 22.295H11.9999C11.9548 22.295 11.9105 22.2916 11.8672 22.285Z" fill="#27272A"/>
<path fill-rule="evenodd" clip-rule="evenodd" d="M11.1196 17C11.1196 16.5168 11.5114 16.125 11.9946 16.125H12.0036C12.4869 16.125 12.8786 16.5168 12.8786 17C12.8786 17.4832 12.4869 17.875 12.0036 17.875H11.9946C11.5114 17.875 11.1196 17.4832 11.1196 17Z" fill="#27272A"/>
</svg>
